<svg width="27" height="27" viewBox="0 0 27 27" fill="none" xmlns="http://www.w3.org/2000/svg">
<path d="M21.1332 23.1L18.7332 12.1667L23.3999 7.5C25.3999 5.5 26.0666 2.83333 25.3999 1.5C24.0666 0.833333 21.3999 1.5 19.3999 3.5L14.7332 8.16667L3.7999 5.76667C3.13324 5.63333 2.5999 5.9 2.33324 6.43333L1.93324 7.1C1.66657 7.76667 1.7999 8.43333 2.33324 8.83333L9.3999 13.5L6.73324 17.5H2.73324L1.3999 18.8333L5.3999 21.5L8.06657 25.5L9.3999 24.1667V20.1667L13.3999 17.5L18.0666 24.5667C18.4666 25.1 19.1332 25.2333 19.7999 24.9667L20.4666 24.7C20.9999 24.3 21.2666 23.7667 21.1332 23.1Z" stroke="#161616" stroke-width="2" stroke-linecap="round" stroke-linejoin="round"/>
</svg>
