<svg width="21" height="23" viewBox="0 0 21 23" fill="none" xmlns="http://www.w3.org/2000/svg">
<path d="M19 7V5.5C19 4.96957 18.7893 4.46086 18.4142 4.08579C18.0391 3.71071 17.5304 3.5 17 3.5H3C2.46957 3.5 1.96086 3.71071 1.58579 4.08579C1.21071 4.46086 1 4.96957 1 5.5V19.5C1 20.0304 1.21071 20.5391 1.58579 20.9142C1.96086 21.2893 2.46957 21.5 3 21.5H6.5M14 1.5V5.5M6 1.5V5.5M1 9.5H6M15.5 17L14 15.75V13.5M20 15.5C20 17.0913 19.3679 18.6174 18.2426 19.7426C17.1174 20.8679 15.5913 21.5 14 21.5C12.4087 21.5 10.8826 20.8679 9.75736 19.7426C8.63214 18.6174 8 17.0913 8 15.5C8 13.9087 8.63214 12.3826 9.75736 11.2574C10.8826 10.1321 12.4087 9.5 14 9.5C15.5913 9.5 17.1174 10.1321 18.2426 11.2574C19.3679 12.3826 20 13.9087 20 15.5Z" stroke="#161616" stroke-width="2" stroke-linecap="round" stroke-linejoin="round"/>
</svg>
