<svg width="26" height="26" viewBox="0 0 26 26" fill="none" xmlns="http://www.w3.org/2000/svg">
<path d="M22.3333 13.3083V24.9749H3.66666V13.3083M13 24.9749V7.47493M13 7.47493H7.74999C6.97645 7.47493 6.23458 7.16764 5.6876 6.62066C5.14062 6.07368 4.83333 5.33182 4.83333 4.55827C4.83333 3.78472 5.14062 3.04285 5.6876 2.49587C6.23458 1.94889 6.97645 1.6416 7.74999 1.6416C11.8333 1.6416 13 7.47493 13 7.47493ZM13 7.47493H18.25C19.0235 7.47493 19.7654 7.16764 20.3124 6.62066C20.8594 6.07368 21.1667 5.33182 21.1667 4.55827C21.1667 3.78472 20.8594 3.04285 20.3124 2.49587C19.7654 1.94889 19.0235 1.6416 18.25 1.6416C14.1667 1.6416 13 7.47493 13 7.47493ZM1.33333 7.47493H24.6667V13.3083H1.33333V7.47493Z" stroke="#565656" stroke-width="2" stroke-linecap="round" stroke-linejoin="round"/>
</svg>
