<svg width="18" height="23" viewBox="0 0 18 23" fill="none" xmlns="http://www.w3.org/2000/svg">
<path d="M17 9.5C17 15.5 9 21.5 9 21.5C9 21.5 1 15.5 1 9.5C1 7.37827 1.84285 5.34344 3.34315 3.84315C4.84344 2.34285 6.87827 1.5 9 1.5C11.1217 1.5 13.1566 2.34285 14.6569 3.84315C16.1571 5.34344 17 7.37827 17 9.5Z" stroke="#161616" stroke-width="2" stroke-linecap="round" stroke-linejoin="round"/>
<path d="M9 12.5C10.6569 12.5 12 11.1569 12 9.5C12 7.84315 10.6569 6.5 9 6.5C7.34315 6.5 6 7.84315 6 9.5C6 11.1569 7.34315 12.5 9 12.5Z" stroke="#161616" stroke-width="2" stroke-linecap="round" stroke-linejoin="round"/>
</svg>
