<svg width="30" height="19" viewBox="0 0 30 19" fill="none" xmlns="http://www.w3.org/2000/svg">
<path d="M1.86621 8.49998C1.86621 10.2681 2.56859 11.9638 3.81883 13.214C5.06907 14.4643 6.76477 15.1666 8.53288 15.1666C10.9965 15.2584 13.3523 16.2007 15.1995 17.8333C17.0468 16.2007 19.4026 15.2584 21.8662 15.1666C23.6343 15.1666 25.33 14.4643 26.5803 13.214C27.8305 11.9638 28.5329 10.2681 28.5329 8.49998V1.83331H21.8662C19.4026 1.92508 17.0468 2.86739 15.1995 4.49998C13.3523 2.86739 10.9965 1.92508 8.53288 1.83331H1.86621V8.49998Z" stroke="#161616" stroke-width="2" stroke-linecap="round" stroke-linejoin="round"/>
<path d="M7.19954 7.16665C9.19954 7.16665 11.1995 7.83331 11.1995 9.83331C8.53288 9.83331 7.19954 9.83331 7.19954 7.16665Z" stroke="#161616" stroke-width="2" stroke-linecap="round" stroke-linejoin="round"/>
<path d="M23.1995 7.16665C21.1995 7.16665 19.1995 7.83331 19.1995 9.83331C21.8662 9.83331 23.1995 9.83331 23.1995 7.16665Z" stroke="#161616" stroke-width="2" stroke-linecap="round" stroke-linejoin="round"/>
</svg>
