<svg width="16" height="17" viewBox="0 0 16 17" fill="none" xmlns="http://www.w3.org/2000/svg">
<path d="M12.6667 6.97493V8.30827C12.6667 9.54594 12.175 10.7329 11.2998 11.6081C10.4247 12.4833 9.23769 12.9749 8.00001 12.9749M8.00001 12.9749C6.76233 12.9749 5.57535 12.4833 4.70018 11.6081C3.82501 10.7329 3.33334 9.54594 3.33334 8.30827V6.97493M8.00001 12.9749V14.9749M8.00001 1.6416C7.46958 1.6416 6.96087 1.85232 6.5858 2.22739C6.21072 2.60246 6.00001 3.11117 6.00001 3.6416V8.30827C6.00001 8.8387 6.21072 9.34741 6.5858 9.72248C6.96087 10.0976 7.46958 10.3083 8.00001 10.3083C8.53044 10.3083 9.03915 10.0976 9.41422 9.72248C9.7893 9.34741 10 8.8387 10 8.30827V3.6416C10 3.11117 9.7893 2.60246 9.41422 2.22739C9.03915 1.85232 8.53044 1.6416 8.00001 1.6416Z" stroke="#161616" stroke-width="2" stroke-linecap="round" stroke-linejoin="round"/>
</svg>
