<svg width="21" height="22" viewBox="0 0 21 22" fill="none" xmlns="http://www.w3.org/2000/svg">
<path d="M0 21.5C0 17.0817 3.58172 13.5 8 13.5C12.4183 13.5 16 17.0817 16 21.5H14C14 18.1863 11.3137 15.5 8 15.5C4.68629 15.5 2 18.1863 2 21.5H0ZM8 12.5C4.685 12.5 2 9.815 2 6.5C2 3.185 4.685 0.5 8 0.5C11.315 0.5 14 3.185 14 6.5C14 9.815 11.315 12.5 8 12.5ZM8 10.5C10.21 10.5 12 8.71 12 6.5C12 4.29 10.21 2.5 8 2.5C5.79 2.5 4 4.29 4 6.5C4 8.71 5.79 10.5 8 10.5ZM16.2837 14.2028C19.0644 15.4561 21 18.252 21 21.5H19C19 19.064 17.5483 16.9671 15.4628 16.0271L16.2837 14.2028ZM15.5962 2.91321C17.5944 3.73703 19 5.70361 19 8C19 10.8702 16.8042 13.2252 14 13.4776V11.4646C15.6967 11.2222 17 9.764 17 8C17 6.61935 16.2016 5.42603 15.041 4.85635L15.5962 2.91321Z" fill="#161616"/>
</svg>
