<svg width="24" height="25" viewBox="0 0 24 25" fill="none" xmlns="http://www.w3.org/2000/svg">
<rect y="0.5" width="24" height="24" rx="12" fill="#EF5142"/>
<path d="M16.0833 7.91659L7.91659 16.0833M10.2499 8.79159C10.2499 9.597 9.597 10.2499 8.79159 10.2499C7.98617 10.2499 7.33325 9.597 7.33325 8.79159C7.33325 7.98617 7.98617 7.33325 8.79159 7.33325C9.597 7.33325 10.2499 7.98617 10.2499 8.79159ZM16.6666 15.2083C16.6666 16.0137 16.0137 16.6666 15.2083 16.6666C14.4028 16.6666 13.7499 16.0137 13.7499 15.2083C13.7499 14.4028 14.4028 13.7499 15.2083 13.7499C16.0137 13.7499 16.6666 14.4028 16.6666 15.2083Z" stroke="#FCFCFC" stroke-width="1.71429" stroke-linecap="round" stroke-linejoin="round"/>
</svg>
