<svg width="28" height="27" viewBox="0 0 28 27" fill="none" xmlns="http://www.w3.org/2000/svg">
<path d="M6.93343 25.5H20.2668M12.7734 13.5C11.9659 13.5075 11.1854 13.2094 10.5885 12.6656C9.99152 12.1217 9.62228 11.3722 9.5548 10.5675C9.48732 9.7628 9.72659 8.96231 10.2246 8.32662C10.7226 7.69093 11.4426 7.26704 12.2401 7.13998C12.1124 6.57495 12.1405 5.98586 12.3214 5.43554C12.5022 4.88522 12.8291 4.39432 13.2671 4.01519C13.705 3.63607 14.2377 3.38294 14.8083 3.28281C15.3788 3.18268 15.9659 3.23931 16.5068 3.44665C16.7436 3.0738 17.0551 2.75402 17.4216 2.50744C17.7881 2.26087 18.2016 2.09284 18.6362 2.01394C19.0708 1.93503 19.5171 1.94696 19.9469 2.04896C20.3766 2.15097 20.7806 2.34085 21.1334 2.60665C21.7488 2.12294 22.5202 1.88159 23.3016 1.92824C24.0829 1.97489 24.8201 2.30632 25.3736 2.85981C25.9271 3.4133 26.2585 4.15047 26.3052 4.93183C26.3518 5.7132 26.1105 6.48456 25.6268 7.09998C25.9278 7.49989 26.1309 7.96485 26.2196 8.45749C26.3083 8.95013 26.2802 9.45671 26.1376 9.93652C25.9949 10.4163 25.7417 10.856 25.3983 11.2202C25.0548 11.5843 24.6307 11.8628 24.1601 12.0333C24.2818 12.5132 24.2954 13.0141 24.2001 13.5M14.9334 13.5L20.2668 8.16665M12.1334 7.16665C11.4021 6.387 10.4528 5.84576 9.4094 5.61348C8.36597 5.38119 7.27676 5.46863 6.28374 5.86439C5.29073 6.26016 4.43997 6.9459 3.84236 7.83222C3.24475 8.71855 2.92801 9.76435 2.93343 10.8333C2.93343 11.8066 3.2001 12.7133 3.65343 13.5M13.6001 25.5C16.7827 25.5 19.8349 24.2357 22.0854 21.9853C24.3358 19.7348 25.6001 16.6826 25.6001 13.5H1.6001C1.6001 16.6826 2.86438 19.7348 5.11482 21.9853C7.36525 24.2357 10.4175 25.5 13.6001 25.5Z" stroke="#161616" stroke-width="2" stroke-linecap="round" stroke-linejoin="round"/>
</svg>
