<svg width="27" height="27" viewBox="0 0 27 27" fill="none" xmlns="http://www.w3.org/2000/svg">
<path d="M4.06657 1.5V6.83333M22.7332 20.1667V25.5M1.3999 4.16667H6.73324M20.0666 22.8333H25.3999M13.3999 1.5L10.8506 9.25067C10.7201 9.64735 10.4983 10.0078 10.203 10.3031C9.90774 10.5984 9.54725 10.8202 9.15057 10.9507L1.3999 13.5L9.15057 16.0493C9.54725 16.1798 9.90774 16.4016 10.203 16.6969C10.4983 16.9922 10.7201 17.3527 10.8506 17.7493L13.3999 25.5L15.9492 17.7493C16.0797 17.3527 16.3015 16.9922 16.5968 16.6969C16.8921 16.4016 17.2526 16.1798 17.6492 16.0493L25.3999 13.5L17.6492 10.9507C17.2526 10.8202 16.8921 10.5984 16.5968 10.3031C16.3015 10.0078 16.0797 9.64735 15.9492 9.25067L13.3999 1.5Z" stroke="#161616" stroke-width="2" stroke-linecap="round" stroke-linejoin="round"/>
</svg>
