<svg width="22" height="23" viewBox="0 0 22 23" fill="none" xmlns="http://www.w3.org/2000/svg">
<path d="M6 9.1543V21.1543M14 5.0343L13 9.1543H18.83C19.1405 9.1543 19.4467 9.22659 19.7244 9.36544C20.0021 9.5043 20.2437 9.7059 20.43 9.9543C20.6163 10.2027 20.7422 10.491 20.7977 10.7965C20.8533 11.102 20.8369 11.4162 20.75 11.7143L18.42 19.7143C18.2988 20.1297 18.0462 20.4947 17.7 20.7543C17.3538 21.0139 16.9327 21.1543 16.5 21.1543H3C2.46957 21.1543 1.96086 20.9436 1.58579 20.5685C1.21071 20.1934 1 19.6847 1 19.1543V11.1543C1 10.6239 1.21071 10.1152 1.58579 9.74008C1.96086 9.36501 2.46957 9.1543 3 9.1543H5.76C6.13208 9.1541 6.49674 9.05011 6.81296 8.85402C7.12917 8.65793 7.38442 8.37751 7.55 8.0443L11 1.1543C11.4716 1.16014 11.9357 1.27247 12.3578 1.48289C12.7799 1.69332 13.1489 1.9964 13.4374 2.3695C13.7259 2.7426 13.9263 3.17606 14.0237 3.6375C14.1212 4.09894 14.113 4.57643 14 5.0343Z" stroke="#FCFCFC" stroke-width="2" stroke-linecap="round" stroke-linejoin="round"/>
</svg>
