<svg width="22" height="23" viewBox="0 0 22 23" fill="none" xmlns="http://www.w3.org/2000/svg">
<path d="M15.9999 13.1543V1.1543M7.99992 17.2743L8.99992 13.1543H3.16992C2.85943 13.1543 2.55321 13.082 2.27549 12.9432C1.99778 12.8043 1.75622 12.6027 1.56992 12.3543C1.38363 12.1059 1.25772 11.8175 1.20218 11.5121C1.14664 11.2066 1.16298 10.8924 1.24992 10.5943L3.57992 2.5943C3.70109 2.17887 3.95373 1.81394 4.29992 1.5543C4.64611 1.29465 5.06718 1.1543 5.49992 1.1543H18.9999C19.5304 1.1543 20.0391 1.36501 20.4141 1.74008C20.7892 2.11516 20.9999 2.62386 20.9999 3.1543V11.1543C20.9999 11.6847 20.7892 12.1934 20.4141 12.5685C20.0391 12.9436 19.5304 13.1543 18.9999 13.1543H16.2399C15.8678 13.1545 15.5032 13.2585 15.187 13.4546C14.8707 13.6507 14.6155 13.9311 14.4499 14.2643L10.9999 21.1543C10.5283 21.1485 10.0642 21.0361 9.64212 20.8257C9.22005 20.6153 8.85099 20.3122 8.56252 19.9391C8.27404 19.566 8.07361 19.1325 7.97618 18.6711C7.87876 18.2097 7.88688 17.7322 7.99992 17.2743Z" stroke="#161616" stroke-width="2" stroke-linecap="round" stroke-linejoin="round"/>
</svg>
