<svg width="30" height="27" viewBox="0 0 30 27" fill="none" xmlns="http://www.w3.org/2000/svg">
<path d="M14.9998 6.83333C14.9998 5.41885 14.4379 4.06229 13.4377 3.0621C12.4375 2.0619 11.081 1.5 9.6665 1.5H1.6665V21.5H10.9998C12.0607 21.5 13.0781 21.9214 13.8283 22.6716C14.5784 23.4217 14.9998 24.4391 14.9998 25.5M14.9998 6.83333V25.5M14.9998 6.83333C14.9998 5.41885 15.5617 4.06229 16.5619 3.0621C17.5621 2.0619 18.9187 1.5 20.3332 1.5H28.3332V21.5H18.9998C17.939 21.5 16.9216 21.9214 16.1714 22.6716C15.4213 23.4217 14.9998 24.4391 14.9998 25.5" stroke="#161616" stroke-width="2" stroke-linecap="round" stroke-linejoin="round"/>
</svg>
