<svg width="28" height="28" viewBox="0 0 28 28" fill="none" xmlns="http://www.w3.org/2000/svg">
<path d="M21 23.3333C21 21.4767 20.2625 19.6963 18.9498 18.3835C17.637 17.0707 15.8566 16.3333 14 16.3333M14 16.3333C12.1435 16.3333 10.363 17.0707 9.05029 18.3835C7.73754 19.6963 7.00004 21.4767 7.00004 23.3333M14 16.3333C16.5774 16.3333 18.6667 14.2439 18.6667 11.6666C18.6667 9.08926 16.5774 6.99992 14 6.99992C11.4227 6.99992 9.33337 9.08926 9.33337 11.6666C9.33337 14.2439 11.4227 16.3333 14 16.3333ZM25.6667 13.9999C25.6667 20.4432 20.4434 25.6666 14 25.6666C7.55672 25.6666 2.33337 20.4432 2.33337 13.9999C2.33337 7.5566 7.55672 2.33325 14 2.33325C20.4434 2.33325 25.6667 7.5566 25.6667 13.9999Z" stroke="#161616" stroke-width="2" stroke-linecap="round" stroke-linejoin="round"/>
</svg>
